<svg width="1400" height="1400" xmlns="http://www.w3.org/2000/svg">
    <path style="display:inline;fill:#adada1;fill-opacity:1;stroke:#52524c;stroke-width:30;stroke-linecap:round;stroke-linejoin:round;stroke-miterlimit:4;stroke-dasharray:none;stroke-opacity:1" d="M524.66 539.785 185.411 707.1l69.148 33.492-150.713 124.92 145.46 69.265-60.452 88.725 185.07 88.128 122.095-59.37 207.102 98.62 204.945-99.659 123.38 58.753 183.141-89.057-61.41-88.886 142.976-69.524-151.646-125.587 66.638-32.404L945.361 572.91l-70.022-33.343"/>
    <g style="display:inline">
        <path style="fill:#cfcfc0;fill-opacity:1;stroke:#cfcfc0;stroke-width:3;stroke-linecap:butt;stroke-linejoin:round;stroke-miterlimit:4;stroke-dasharray:none;stroke-opacity:1" d="M453.994 574.148 185.412 707.1l69.131 33.484-150.697 124.928 145.46 69.265L454.64 633.412l13.289-6.463-38.098-18.14 37.594-28.266-13.43-6.395z"/>
        <path style="fill:#adada1;fill-opacity:1;stroke:#adada1;stroke-width:3;stroke-linecap:butt;stroke-linejoin:round;stroke-miterlimit:4;stroke-dasharray:none;stroke-opacity:1" d="m945.361 572.91-12.625 6.78 47.807 22.765-47.965 23.324 13.428 6.395 207.172 299.857 142.976-69.523-153.476-126.46 1.83.872 66.637-32.404L945.36 572.91zM749.434 714.835l158.632 336.386-204.945 99.658-1.652-412.72z"/>
        <path style="fill:#cfcfc0;fill-opacity:1;stroke:#cfcfc0;stroke-width:3;stroke-linecap:butt;stroke-linejoin:round;stroke-miterlimit:4;stroke-dasharray:none;stroke-opacity:1" d="m652.999 715.078 48.47 23.081 1.652 412.72-207.101-98.62z"/>
        <path style="fill:#909087;fill-opacity:1;stroke:#909087;stroke-width:3;stroke-linecap:butt;stroke-linejoin:round;stroke-miterlimit:4;stroke-dasharray:none;stroke-opacity:1" d="m749.434 714.835 158.632 336.386 123.38 58.753L762.863 721.23zm-96.435.243-156.98 337.181-122.095 59.371L639.71 721.54z"/>
        <path style="fill:#f5f5e4;fill-opacity:1;stroke:#f5f5e4;stroke-width:3;stroke-linecap:butt;stroke-linejoin:round;stroke-miterlimit:4;stroke-dasharray:none;stroke-opacity:1" d="M875.34 539.568v61.702l-174.422 84.816-176.258-83.932v-62.369l-70.666 34.363 13.43 6.395-47.967 23.326 48.47 23.08-13.288 6.463-265.784 390.09 185.069 88.129 265.785-390.09 13.29-6.463 48.47 23.082 47.965-23.324 13.431 6.393 268.58 388.746 183.143-89.057-268.582-388.744-13.428-6.395 47.965-23.324-47.807-22.766 12.625-6.779-70.021-33.342z"/>
        <path style="display:inline;fill:#e09e53;fill-opacity:1;stroke:#593f21;stroke-width:30;stroke-linecap:butt;stroke-linejoin:round;stroke-miterlimit:4;stroke-dasharray:none;stroke-opacity:1" d="m652.08 249.12-174.422 84.816 47.002 123.302v144.915l176.258 83.932L875.34 601.27V456.354l47.002-78.538-104.857 50.988-118.403-56.382z"/>
        <path style="fill:#f7af5c;fill-opacity:1;stroke:#f7af5c;stroke-width:3;stroke-linecap:butt;stroke-linejoin:round;stroke-miterlimit:4;stroke-dasharray:none;stroke-opacity:1" d="m675.229 528.937 23.853-11.599 12.529 5.966-10.692 17.866z"/>
        <path style="fill:#e09e53;fill-opacity:1;stroke:#e09e53;stroke-width:3;stroke-linecap:butt;stroke-linejoin:round;stroke-miterlimit:4;stroke-dasharray:none;stroke-opacity:1" d="M699.082 372.422v144.916l12.529 5.966 36.31-60.673 69.563-33.827zm-221.423-38.486 47.002 123.302 174.42-84.816-47-123.302z"/>
        <path style="fill:#b58043;fill-opacity:1;stroke:#b58043;stroke-width:3;stroke-linecap:butt;stroke-linejoin:round;stroke-miterlimit:4;stroke-dasharray:none;stroke-opacity:1" d="m524.66 457.238 174.421-84.816v144.916l-23.853 11.6z"/>
        <path style="fill:#e09e53;fill-opacity:1;stroke:#e09e53;stroke-width:3;stroke-linecap:butt;stroke-linejoin:round;stroke-miterlimit:4;stroke-dasharray:none;stroke-opacity:1" d="M524.66 457.238v144.915l176.258 83.932V541.17z"/>
        <path style="fill:#b58043;fill-opacity:1;stroke:#b58043;stroke-width:3;stroke-linecap:butt;stroke-linejoin:round;stroke-miterlimit:4;stroke-dasharray:none;stroke-opacity:1" d="m700.918 541.17 47.002-78.539 174.421-84.815-47.002 78.538z"/>
        <path style="fill:#b58043;fill-opacity:1;stroke:#b58043;stroke-width:3;stroke-linecap:butt;stroke-linejoin:round;stroke-miterlimit:4;stroke-dasharray:none;stroke-opacity:1" d="m700.918 541.17 174.421-84.816V601.27l-174.42 84.815z"/>
    </g>
</svg>
